<svg width="48" height="48" viewBox="0 0 48 48" fill="none" xmlns="http://www.w3.org/2000/svg">
<path d="M7.73427 32.1837C7.73427 32.1837 9.64191 36.1019 22.6048 35.6992C35.5676 35.2964 37.0725 32.7862 37.0725 31.9808C37.0725 31.1753 31.1437 28.4653 23.3073 28.5652C15.4708 28.6651 8.03707 29.5705 7.73427 32.1806V32.1837Z" fill="#FED607"/>
<path d="M7.9339 32.8865V37.2074C7.9339 37.2074 13.3601 40.1204 23.1042 40.1204C32.8483 40.1204 37.1692 37.0046 37.1692 37.0046V32.6836C37.1692 32.6836 32.6484 36.0992 22.6015 35.6965C12.5546 35.2937 9.14207 33.6889 7.9339 32.8865Z" fill="#D18000"/>
<path d="M22.5048 35.5304C30.6055 35.5304 37.1724 34.0012 37.1724 32.1148C37.1724 30.2284 30.6055 28.6992 22.5048 28.6992C14.4041 28.6992 7.83719 30.2284 7.83719 32.1148C7.83719 34.0012 14.4041 35.5304 22.5048 35.5304Z" stroke="#002140" stroke-width="0.857057" stroke-linecap="round" stroke-linejoin="round"/>
<path d="M7.83452 32.1133V36.6008C7.83452 38.4872 14.4022 40.0164 22.5021 40.0164C30.602 40.0164 37.1698 38.4872 37.1698 36.6008V32.1133" stroke="#002140" stroke-width="0.857057" stroke-linecap="round" stroke-linejoin="round"/>
<path d="M22.5712 33.1204C25.6784 33.1204 28.1972 32.6134 28.1972 31.9879C28.1972 31.3625 25.6784 30.8555 22.5712 30.8555C19.464 30.8555 16.9452 31.3625 16.9452 31.9879C16.9452 32.6134 19.464 33.1204 22.5712 33.1204Z" stroke="#D18000" stroke-width="0.857057" stroke-miterlimit="10"/>
<path d="M11.5528 25.2813C11.5528 25.2813 13.4604 29.1996 26.4233 28.7968C39.3861 28.3941 40.8911 25.8839 40.8911 25.0784C40.8911 24.273 34.9622 21.5629 27.1258 21.6628C19.2893 21.7628 11.8556 22.6681 11.5528 25.2783V25.2813Z" fill="#FED607"/>
<path d="M11.7524 25.988V30.309C11.7524 30.309 17.1786 33.2219 26.9227 33.2219C36.6668 33.2219 40.9877 30.1061 40.9877 30.1061V25.7852C40.9877 25.7852 36.4669 29.2007 26.42 28.798C16.3731 28.3953 12.9575 26.7874 11.7524 25.985V25.988Z" fill="#D18000"/>
<path d="M26.3198 28.632C34.4205 28.632 40.9874 27.1027 40.9874 25.2164C40.9874 23.33 34.4205 21.8008 26.3198 21.8008C18.2191 21.8008 11.6521 23.33 11.6521 25.2164C11.6521 27.1027 18.2191 28.632 26.3198 28.632Z" stroke="#002140" stroke-width="0.857057" stroke-linecap="round" stroke-linejoin="round"/>
<path d="M11.6521 25.2148V29.7023C11.6521 31.5888 18.2199 33.1179 26.3198 33.1179C34.4197 33.1179 40.9874 31.5888 40.9874 29.7023V25.2148" stroke="#002140" stroke-width="0.857057" stroke-linecap="round" stroke-linejoin="round"/>
<path d="M26.3862 26.222C29.4933 26.222 32.0122 25.715 32.0122 25.0895C32.0122 24.4641 29.4933 23.957 26.3862 23.957C23.279 23.957 20.7601 24.4641 20.7601 25.0895C20.7601 25.715 23.279 26.222 26.3862 26.222Z" stroke="#D18000" stroke-width="0.857057" stroke-miterlimit="10"/>
<path d="M7.56747 19.0157C7.56747 19.0157 9.47511 22.9339 22.438 22.5312C35.4008 22.1285 36.9057 19.6183 36.9057 18.8128C36.9057 18.0074 30.9769 15.2973 23.1405 15.3972C15.304 15.4971 7.87027 16.4025 7.56747 19.0127V19.0157Z" fill="#FED607"/>
<path d="M7.76711 19.7185V24.0395C7.76711 24.0395 13.1933 26.9524 22.9374 26.9524C32.6815 26.9524 37.0024 23.8366 37.0024 23.8366V19.5156C37.0024 19.5156 32.4816 22.9312 22.4347 22.5285C12.3878 22.1258 8.97225 20.524 7.76711 19.7185Z" fill="#D18000"/>
<path d="M22.3354 22.3663C30.4361 22.3663 37.003 20.8371 37.003 18.9507C37.003 17.0644 30.4361 15.5352 22.3354 15.5352C14.2347 15.5352 7.66774 17.0644 7.66774 18.9507C7.66774 20.8371 14.2347 22.3663 22.3354 22.3663Z" stroke="#002140" stroke-width="0.857057" stroke-linecap="round" stroke-linejoin="round"/>
<path d="M7.66774 18.9492V23.4367C7.66774 25.3232 14.2355 26.8523 22.3354 26.8523C30.4353 26.8523 37.003 25.3232 37.003 23.4367V18.9492" stroke="#002140" stroke-width="0.857057" stroke-linecap="round" stroke-linejoin="round"/>
<path d="M22.4017 19.9524C25.5089 19.9524 28.0278 19.4454 28.0278 18.82C28.0278 18.1945 25.5089 17.6875 22.4017 17.6875C19.2946 17.6875 16.7757 18.1945 16.7757 18.82C16.7757 19.4454 19.2946 19.9524 22.4017 19.9524Z" stroke="#D18000" stroke-width="0.857057" stroke-miterlimit="10"/>
<path d="M11.4197 12.0899C11.4197 12.0899 13.3273 16.0081 26.2902 15.6054C39.2531 15.2027 40.758 12.6925 40.758 11.887C40.758 11.0816 34.8292 8.37152 26.9927 8.47144C19.1562 8.57137 11.7225 9.47674 11.4197 12.0869V12.0899Z" fill="#FED607"/>
<path d="M12.5065 10.8865C13.7631 11.7706 15.4225 11.8585 16.9425 11.6314C18.4626 11.4043 19.9312 10.8986 21.4573 10.7108C23.2196 10.4928 25.0061 10.7048 26.7835 10.7048C27.5012 10.7048 28.243 10.6624 28.8819 10.3354C29.5208 10.0083 30.0235 9.32099 29.9296 8.61244C29.9296 8.61244 24.5519 8.42168 20.449 8.73356C16.346 9.04544 12.5095 10.8895 12.5095 10.8895L12.5065 10.8865Z" fill="#FFED8F"/>
<path d="M11.6193 12.7927V17.1137C11.6193 17.1137 17.0455 20.0266 26.7896 20.0266C36.5337 20.0266 40.8546 16.9108 40.8546 16.9108V12.5898C40.8546 12.5898 36.3338 16.0054 26.2869 15.6027C16.24 15.2 12.8245 13.5921 11.6193 12.7897V12.7927Z" fill="#D18000"/>
<path d="M26.1867 15.4366C34.2874 15.4366 40.8543 13.9074 40.8543 12.0211C40.8543 10.1347 34.2874 8.60547 26.1867 8.60547C18.086 8.60547 11.5191 10.1347 11.5191 12.0211C11.5191 13.9074 18.086 15.4366 26.1867 15.4366Z" stroke="#002140" stroke-width="0.857057" stroke-linecap="round" stroke-linejoin="round"/>
<path d="M11.5191 12.0234V16.5109C11.5191 18.3974 18.0868 19.9265 26.1867 19.9265C34.2866 19.9265 40.8543 18.3974 40.8543 16.5109V12.0234" stroke="#002140" stroke-width="0.857057" stroke-linecap="round" stroke-linejoin="round"/>
<path d="M26.254 13.0228C29.3611 13.0228 31.88 12.5157 31.88 11.8903C31.88 11.2648 29.3611 10.7578 26.254 10.7578C23.1468 10.7578 20.6279 11.2648 20.6279 11.8903C20.6279 12.5157 23.1468 13.0228 26.254 13.0228Z" stroke="#D18000" stroke-width="0.857057" stroke-miterlimit="10"/>
</svg>
